<svg height="654" viewBox="0 0 1024 654" width="1024" xmlns="http://www.w3.org/2000/svg"><path d="m596 318.256098c0 28.04878-12.857143 33.939024-35.714286 42.07317-11.142857 3.92683-20.571428 6.731708-20.571428 14.024391 0 2.804878 3.428571 8.695121 7.428571 14.585365h-14.857143c-12.571428-6.170731-20.571428-17.109756-20.571428-27.487804 0-19.634147 15.142857-26.646342 39.714285-33.378049 13.428572-3.646342 25.142858-6.45122 25.142858-12.621951 0-9.256098-23.142858-14.304879-42.285715-14.304879-9.142857 0-18.285714 1.682927-24.857143 2.524391-5.428571-3.085366-9.428571-10.939025-9.428571-17.109756 0-13.463415 9.428571-23.560976 32-23.560976 29.142857 0 64 23.841463 64 55.256098zm-33.428571 106.304878c0 11.780487-9.714286 22.439024-22.571429 22.439024-12.285714 0-22.571429-10.097561-22.571429-22.439024 0-12.621952 10.285715-22.439025 22.571429-22.439025 12.857143 0 22.571429 10.378049 22.571429 22.439025zm-86.84991-200.144182-17.544304 104.219847c-.556962 3.370993-7.797468 3.370993-8.35443 0l-17.544304-104.219847c-1.949367-10.955725 8.35443-17.416794 21.443038-17.416794h.556962c13.088608 0 23.113924 6.461069 21.443038 17.416794zm.278481 144.39084c0 12.079389-9.746835 22.192366-22 22.192366s-22-9.832061-22-22.192366c0-12.360306 9.746835-22.473283 22-22.473283s22 10.393893 22 22.473283z" fill="#891f70"/></svg>