<svg height="654" viewBox="0 0 1024 654" width="1024" xmlns="http://www.w3.org/2000/svg"><path d="m516 359.998597c-8.235294 12.420758-20.705882 23.001403-35.529412 23.001403-6.823529 0-24.470588-6.670407-24.470588-11.500701 0-4.600281 5.176471-18.631136 14.117647-44.162693 3.294118-9.660589 6.588235-19.551192 6.588235-24.611501 0-4.370266-5.647058-6.440393-10.823529-6.440393-8.470588 0-15.529412 13.1108-31.294118 45.542777l-8.941176 37.492287-37.647059 1.15007 9.176471-34.962132 20.470588-90.625526c1.17647-5.290323-.470588-8.970547-4-10.580645l-12.235294-5.750351 1.882353-7.360449 56.470588-12.190743-13.647059 51.98317-13.647059 55.43338h2.82353c6.823529-15.870968 16.470588-36.342216 24.470588-44.162693 6.588235-6.440393 16.941176-11.730715 27.058823-11.730715 16 0 24.941177 8.510519 24.941177 20.471248 0 11.500701-6.352941 28.751753-12 44.852735l-10.117647 26.681627 6.117647 2.070126 16-9.890603zm128 52c-8.235294 12.420758-20.705882 23.001403-35.529412 23.001403-6.823529 0-24.470588-6.670407-24.470588-11.500701 0-4.600281 5.176471-18.631136 14.117647-44.162693 3.294118-9.660589 6.588235-19.551192 6.588235-24.611501 0-4.370266-5.647058-6.440393-10.823529-6.440393-8.470588 0-15.529412 13.1108-31.294118 45.542777l-8.941176 37.492287-37.647059 1.15007 9.176471-34.962132 20.470588-90.625526c1.17647-5.290323-.470588-8.970547-4-10.580645l-12.235294-5.750351 1.882353-7.360449 56.470588-12.190743-13.647059 51.98317-13.647059 55.43338h2.82353c6.823529-15.870968 16.470588-36.342216 24.470588-44.162693 6.588235-6.440393 16.941176-11.730715 27.058823-11.730715 16 0 24.941177 8.510519 24.941177 20.471248 0 11.500701-6.352941 28.751753-12 44.852735l-10.117647 26.681627 6.117647 2.070126 16-9.890603z" fill="#891f70"/></svg>