<?xml version="1.0" standalone="no"?>
<!DOCTYPE svg PUBLIC "-//W3C//DTD SVG 20010904//EN"
 "http://www.w3.org/TR/2001/REC-SVG-20010904/DTD/svg10.dtd">
<svg version="1.0" xmlns="http://www.w3.org/2000/svg"
 width="1024.000000pt" height="1024.000000pt" viewBox="0 0 1024.000000 1024.000000"
 preserveAspectRatio="xMidYMid meet">
<metadata>
Created by potrace 1.11, written by Peter Selinger 2001-2013
</metadata>
<g transform="translate(0.000000,1024.000000) scale(0.100000,-0.100000)"
fill="#000000" stroke="none">
<path d="M1414 8313 c3 -38 8 -106 11 -153 12 -174 17 -235 20 -238 2 -2 18
-6 37 -8 18 -3 56 -9 83 -14 56 -10 175 -27 250 -35 28 -3 57 -7 65 -10 8 -2
30 -7 49 -10 55 -9 126 -44 157 -76 l29 -30 2 -2609 c1 -2418 0 -2611 -15
-2641 -34 -67 -133 -109 -294 -123 -34 -3 -74 -8 -88 -10 -14 -3 -47 -7 -75
-11 -217 -27 -205 -24 -206 -48 0 -12 -2 -42 -4 -67 -1 -25 -6 -90 -9 -145 -4
-55 -9 -128 -12 -163 l-5 -62 1590 0 1590 0 -4 48 c-2 26 -7 99 -10 162 -4 63
-8 124 -10 135 -1 11 -3 41 -4 66 -1 52 -3 53 -118 65 -27 2 -75 9 -108 14
-33 5 -91 12 -130 16 -183 16 -280 48 -315 106 -20 33 -20 46 -20 1228 l0
1195 1243 0 1242 0 0 -1201 0 -1200 -25 -37 c-51 -75 -154 -106 -395 -122
-183 -11 -250 -16 -251 -18 -1 -1 -5 -49 -8 -107 -4 -58 -8 -130 -11 -160 -3
-30 -7 -85 -10 -123 l-5 -67 1590 0 1591 0 -5 73 c-6 71 -11 143 -21 302 -3
43 -7 80 -8 82 -3 2 -26 6 -157 27 -52 8 -117 18 -145 21 -44 5 -181 26 -195
30 -3 1 -18 5 -35 10 -61 16 -122 56 -139 91 -15 32 -16 238 -16 2634 l0 2599
33 42 c26 35 45 48 97 65 74 25 75 26 305 54 188 22 249 31 252 34 1 1 4 38 7
81 8 121 16 233 22 308 l5 67 -1591 0 -1592 0 6 -57 c6 -60 11 -123 22 -298 3
-55 7 -101 9 -103 2 -2 18 -5 36 -7 19 -3 50 -7 69 -10 19 -3 53 -8 75 -10 22
-3 51 -8 65 -10 14 -2 57 -7 95 -11 104 -9 203 -31 254 -56 86 -43 79 61 80
-1215 l1 -1133 -1245 0 -1245 0 1 1123 c0 842 3 1131 12 1157 23 66 120 108
292 125 33 3 112 12 175 20 63 8 135 17 159 20 25 3 46 6 47 8 2 2 12 141 20
272 2 39 6 96 9 128 l4 57 -1589 0 -1590 0 4 -67z"/>
</g>
</svg>
